<svg width="191" height="192" viewBox="0 0 191 192" fill="none" xmlns="http://www.w3.org/2000/svg">
<path d="M0 112.47V97.9242C0.160491 97.4554 0.272826 96.9715 0.335269 96.48C0.587936 92.4633 1.19201 88.4764 2.14056 84.5651C5.56471 69.0355 12.7165 54.5726 22.9788 42.4244C31.3162 32.3512 41.9219 24.397 53.9266 19.2135C68.8068 12.7787 85.2818 10.9811 101.199 14.0555C119.915 17.2323 136.876 27.0027 149.014 41.5991C157.238 51.4455 162.394 63.4878 163.843 76.2349C164.955 84.258 164.561 92.4181 162.683 100.297C160.516 101.561 160.104 102.618 161.548 104.707C157.039 119.724 147.306 132.632 134.107 141.096C128.971 144.488 123.197 146.796 117.138 147.879C117.138 147.673 116.931 147.26 116.88 147.286C116.338 147.286 116.673 148.008 116.287 148.24C113.708 148.627 111.129 149.195 108.55 149.349C99.8108 149.931 91.0572 148.456 82.9918 145.042C81.2258 144.152 79.3774 143.435 77.4728 142.902C77.4728 142.283 76.9054 141.999 76.4154 141.69C71.4716 138.712 67.0031 135.008 63.1594 130.703C56.0742 122.664 52.0634 112.377 51.8377 101.664C51.5645 93.3473 53.7149 85.1308 58.0272 78.0144C60.5735 73.3332 64.0596 69.2284 68.2667 65.9577C72.4739 62.6869 77.3114 60.3207 82.476 59.0073C87.2458 57.8014 92.2076 57.556 97.0731 58.2852C102.031 59.3616 106.706 61.4706 110.793 64.4748C114.885 67.0927 118.334 70.5993 120.883 74.7339C123.433 78.8685 125.017 83.5247 125.519 88.3562C125.523 90.2182 125.411 92.0787 125.184 93.9268C123.791 105.506 113.398 117.525 99.3942 116.725C94.6344 116.514 90.0849 114.703 86.4814 111.587C82.8778 108.47 80.4308 104.229 79.536 99.549C78.1433 90.0583 85.545 80.4387 95.0099 81.1092C96.6362 81.1333 98.2211 81.6258 99.5747 82.5277C99.0824 82.5016 98.5917 82.45 98.1047 82.3729C89.1298 80.7224 83.0434 88.2788 83.1466 96.0158C83.2091 98.6126 83.9733 101.144 85.3582 103.342C86.743 105.539 88.6969 107.321 91.0125 108.498C92.4947 109.502 94.2271 110.073 96.0157 110.149C99.9364 110.962 104.019 110.31 107.492 108.318C117.653 102.36 119.82 87.2472 112.65 78.3497C108.511 73.4128 102.674 70.2039 96.2881 69.3543C89.902 68.5047 83.4291 70.0761 78.1433 73.7591C68.6269 80.8513 64.9389 90.6773 65.5321 102.309C65.5844 105.742 66.2481 109.14 67.4921 112.341C72.8564 124.849 82.966 131.013 95.861 133.36C101.871 134.767 108.136 134.661 114.094 133.05C126.989 129.852 135.861 121.548 142.102 110.2C147.788 100.12 149.948 88.4298 148.24 76.9828C146.963 66.8718 142.667 57.3807 135.913 49.7487C126.037 38.5909 112.853 30.8827 98.2852 27.75C90.9153 26.3624 83.3813 26.067 75.9254 26.8731C66.1922 27.9938 56.8011 31.1388 48.356 36.1059C38.9563 41.7418 30.8533 49.2999 24.5778 58.2852C23.648 59.2835 22.9288 60.4588 22.463 61.741C20.5287 60.9931 20.6577 62.2568 20.7866 63.4947C20.7372 63.9936 20.5294 64.4636 20.1935 64.8358C12.5484 77.397 8.11928 91.6499 7.29854 106.332C6.39143 118.585 8.09678 130.892 12.3018 142.438C12.3018 142.824 12.0181 143.34 12.7144 143.418C12.2502 144.449 12.9465 145.326 13.2818 146.203C16.4994 154.557 20.8374 162.435 26.1767 169.62C26.4604 170.033 26.9504 170.368 26.9504 171.013C26.8138 171.035 26.6744 171.035 26.5378 171.013C26.3018 170.811 26.0779 170.596 25.8672 170.368C12.5523 156.307 3.88993 138.487 1.05739 119.33C0.965703 117.01 0.610968 114.709 0 112.47V112.47Z" fill="#814FC0"/>
<path d="M101.225 95.6546C101.219 97.0968 100.654 98.4805 99.6485 99.5147C98.6432 100.549 97.2761 101.153 95.8346 101.199C95.0648 101.228 94.2972 101.098 93.5793 100.819C92.8613 100.54 92.208 100.117 91.6597 99.5755C91.1113 99.0344 90.6795 98.3868 90.3907 97.6726C90.1019 96.9584 89.9622 96.1927 89.9803 95.4225C90.0407 93.8878 90.7072 92.4396 91.8336 91.3954C92.96 90.3512 94.4544 89.7961 95.9894 89.8519C97.4465 89.945 98.8096 90.6039 99.7877 91.688C100.766 92.7721 101.282 94.1956 101.225 95.6546V95.6546Z" fill="#251C7A"/>
<path d="M191 97.7694C190.856 112.144 187.322 126.282 180.684 139.033C174.883 150.558 166.775 160.767 156.864 169.028C146.953 177.288 135.45 183.424 123.069 187.054C111.675 190.591 99.7009 191.878 87.8147 190.845C75.013 189.864 62.546 186.282 51.1762 180.318C39.8064 174.354 29.7729 166.133 21.6894 156.158C18.7998 152.668 16.1708 148.97 13.8235 145.094C13.514 144.578 13.3851 143.933 12.7661 143.624C12.7829 143.443 12.7539 143.261 12.6818 143.094C12.6097 142.927 12.4968 142.781 12.3535 142.67C8.11044 131.132 6.35274 118.828 7.19551 106.564C8.01312 91.8732 12.4423 77.6113 20.0905 65.0421C20.3484 64.6036 20.7094 64.2426 20.6578 63.701C22.5405 63.701 22.7984 63.5205 22.3342 61.9473C22.7879 60.6593 23.5085 59.4816 24.4489 58.4914C30.6891 49.4384 38.7753 41.8093 48.1756 36.1058C56.6224 31.1082 66.0229 27.9367 75.7708 26.7957C83.2229 25.9637 90.7569 26.2331 98.1306 27.5952C97.8082 27.7644 97.4594 27.8777 97.099 27.9304C91.5661 27.8518 86.0409 28.3707 80.6193 29.4778C80.3829 29.0251 79.9959 28.6692 79.525 28.4714C79.0542 28.2737 78.529 28.2465 78.0403 28.3946C77.5416 28.5866 77.1314 28.9561 76.8886 29.4322C76.6458 29.9082 76.5876 30.4572 76.725 30.9736C76.1082 31.0046 75.4953 31.0909 74.8939 31.2315C63.422 34.8741 53.142 41.5375 45.1329 50.5223C37.1237 59.5071 31.6806 70.4821 29.3748 82.2955C28.5654 84.8691 28.3019 87.5833 28.6011 90.2646L28.369 91.0898L28.1627 91.7346C27.0551 97.406 26.6394 103.191 26.9248 108.962C25.9705 109.736 25.1195 110.922 24.0363 111.206C22.9531 111.49 22.2052 109.659 21.0189 109.22C21.0189 109.22 20.8641 109.22 20.6578 109.401C21.4315 110.252 22.5147 110.974 22.7984 111.98C23.0821 112.985 21.4831 113.656 21.0705 114.559C21.0705 114.559 21.0705 114.739 21.0705 114.842C21.7668 114.842 22.1279 114.223 22.5147 113.785C23.34 112.805 23.9847 112.831 24.8874 113.785C25.79 114.739 25.79 115.307 26.8474 115.281C26.8834 115.299 26.9231 115.308 26.9635 115.308C27.0038 115.308 27.0435 115.299 27.0795 115.281C27.3943 115.821 27.5631 116.435 27.5695 117.06C29.2858 129.346 34.5978 140.849 42.8371 150.123C66.8991 176.403 96.3769 184.32 130.523 174.469C142.292 170.973 152.955 164.487 161.471 155.642L162.012 155.075L162.425 154.507L162.992 154.12C163.714 153.424 164.462 152.805 165.133 152.083C171.072 145.715 176.113 138.565 180.117 130.832C185.513 120.492 189.007 109.267 190.433 97.692L191 97.7694ZM53.8236 164.514C53.8209 164.315 53.7771 164.119 53.695 163.938C53.6129 163.756 53.4943 163.594 53.3466 163.461C53.1989 163.328 53.0253 163.227 52.8367 163.164C52.6481 163.101 52.4485 163.077 52.2504 163.095C52.0492 163.081 51.8473 163.113 51.6599 163.187C51.4725 163.262 51.3043 163.378 51.168 163.527C51.0317 163.675 50.9306 163.853 50.8725 164.046C50.8143 164.239 50.8004 164.443 50.832 164.643C50.8136 164.843 50.8413 165.044 50.9128 165.232C50.9844 165.419 51.098 165.588 51.2449 165.725C51.3918 165.862 51.5681 165.963 51.7602 166.022C51.9524 166.08 52.1554 166.093 52.3536 166.061C52.5555 166.069 52.7569 166.034 52.9441 165.958C53.1314 165.882 53.3003 165.767 53.4395 165.621C53.5787 165.474 53.685 165.3 53.7512 165.109C53.8175 164.918 53.8421 164.715 53.8236 164.514V164.514Z" fill="#2F1E4B"/>
<path d="M28.6004 90.2646C28.2954 87.6123 28.5412 84.9257 29.3225 82.3729C31.6283 70.5594 37.0714 59.5845 45.0806 50.5996C53.0898 41.6148 63.3697 34.9515 74.8417 31.3089C75.4431 31.1683 76.0559 31.082 76.6727 31.051C77.3691 31.9537 78.1428 32.6758 79.4065 32.1858C80.6702 31.6958 80.6702 30.6642 80.6186 29.6068C86.0402 28.4996 91.5654 27.9808 97.0983 28.0594C97.4587 28.0067 97.8074 27.8933 98.1299 27.7241C112.706 30.8134 125.916 38.4752 135.835 49.5939C142.61 57.211 146.932 66.6924 148.24 76.8023C149.991 88.2462 147.867 99.9472 142.205 110.045C135.989 121.393 127.195 129.723 114.274 132.973C108.32 134.6 102.055 134.724 96.0409 133.334C97.0467 133.334 98.0268 133.334 99.0326 133.334C108.715 133.511 118.076 129.859 125.08 123.172C125.931 122.373 127.04 121.677 127.324 120.361C127.762 120.593 127.917 120.361 128.098 119.975L128.485 119.562C128.742 119.304 129.026 119.072 129.258 118.788C136.578 109.792 140.061 98.2761 138.955 86.7314C138.256 77.6385 134.801 68.9748 129.052 61.8957C130.238 60.8125 131.321 59.0846 132.637 58.8525C133.952 58.6204 134.88 60.6836 136.144 61.5604L137.098 62.3599C136.569 60.9948 135.677 59.7999 134.519 58.9041C133.565 58.0014 133.617 57.4083 134.519 56.5314C135.649 55.5939 136.586 54.4466 137.279 53.1529C135.902 53.9956 134.644 55.0191 133.539 56.1961C132.92 56.8151 132.482 56.8151 131.837 56.1961C130.861 55.112 129.742 54.1662 128.51 53.385C128.33 53.9782 128.742 54.1587 128.923 54.4424C129.774 55.6546 131.734 56.5572 131.502 57.8209C131.27 59.0846 129.619 60.1162 128.588 61.251C126.977 59.2794 125.2 57.4502 123.275 55.7835C115.634 48.9212 106.233 44.3215 96.126 42.4996C86.0186 40.6776 75.6036 41.7053 66.0473 45.4676C59.5174 48.0048 53.5693 51.8386 48.5618 56.7377L48.1491 57.202L47.5817 57.5888L47.0144 58.1304C44.5964 60.4489 42.3791 62.9682 40.3864 65.661C34.8861 73.0122 30.8817 81.3714 28.6004 90.2646V90.2646Z" fill="#432FA1"/>
<path d="M77.6791 142.928C72.1195 141.007 66.9928 138.01 62.592 134.107L61.7925 133.308C59.7036 131.4 59.6262 131.425 57.6146 133.308C55.9898 134.907 54.3135 136.48 52.6629 138.079C52.4308 137.821 52.1213 137.563 51.915 137.28C46.2768 129.225 42.9769 119.768 42.3806 109.955C41.7844 100.141 43.9149 90.3542 48.5365 81.6766C52.0476 75.0833 56.8548 69.2673 62.6694 64.5779L63.1336 64.1653C67.3382 61.3953 71.9625 59.3226 76.828 58.0273C83.452 56.2605 90.4233 56.2605 97.0473 58.0273C92.1791 57.3017 87.2145 57.5648 82.4502 58.801C77.2913 60.1368 72.4628 62.5207 68.2654 65.8041C64.068 69.0875 60.5916 73.2 58.053 77.8855C53.7691 85.0107 51.6458 93.2263 51.9408 101.535C52.163 112.341 56.2533 122.708 63.4689 130.755C67.2832 135.089 71.7254 138.827 76.6475 141.844C77.1375 142.025 77.6017 142.283 77.6791 142.928Z" fill="#432FA1"/>
<path d="M127.324 120.207C127.04 121.522 125.931 122.218 125.08 123.018C118.075 129.704 108.715 133.356 99.0323 133.179C98.0265 133.179 97.0465 133.179 96.0407 133.179C83.1457 130.858 72.8298 124.746 67.5429 112.237C66.299 109.054 65.6352 105.674 65.5828 102.257C65.5828 101.251 65.5828 100.271 65.7118 99.2909C65.9512 95.3568 67.0441 91.5219 68.9146 88.0526C70.785 84.5832 73.3883 81.5627 76.5435 79.2006C76.4844 79.8871 76.2441 80.5457 75.8472 81.109C73.3149 85.7446 72.1437 91.0013 72.4687 96.2735C72.3623 99.5718 73.1368 102.839 74.7124 105.738C74.6696 105.941 74.683 106.151 74.7512 106.347C74.8194 106.542 74.9398 106.715 75.0993 106.847C76.6705 111.193 79.532 114.954 83.3005 117.628C83.3598 117.764 83.457 117.88 83.5804 117.962C83.7039 118.044 83.8484 118.089 83.9968 118.092V118.092L84.4094 118.427C84.4094 119.098 84.9768 119.355 85.4152 119.691C91.7522 124.322 99.4681 126.675 107.311 126.37C112.096 126.3 116.817 125.256 121.186 123.301C123.326 122.399 125.132 120.929 127.324 120.207Z" fill="#440263"/>
<path d="M91.0382 108.575C88.7254 107.396 86.7711 105.619 85.3786 103.428C83.9861 101.237 83.2064 98.7133 83.1207 96.1188C83.1207 88.3819 89.0523 80.7996 98.053 82.4244C98.558 82.486 99.0659 82.5204 99.5746 82.5276C102.751 83.8593 105.329 86.3091 106.822 89.4135C107.662 91.2465 108.11 93.2351 108.136 95.2514C108.163 97.2678 107.768 99.2674 106.976 101.122C106.489 101.621 106.149 102.246 105.996 102.927C105 104.617 103.614 106.044 101.954 107.09C100.294 108.135 98.4085 108.768 96.454 108.936C94.5714 109.194 92.8434 108.524 91.0382 108.575ZM101.354 95.6804C101.392 94.247 100.877 92.8539 99.9175 91.7885C98.9578 90.7232 97.6257 90.0669 96.1961 89.9551C95.4276 89.8991 94.6556 89.9967 93.9252 90.2424C93.1948 90.488 92.5206 90.8766 91.942 91.3855C91.3635 91.8945 90.892 92.5136 90.5553 93.2067C90.2186 93.8998 90.0233 94.6531 89.9808 95.4225C89.9733 96.1862 90.1208 96.9435 90.4143 97.6486C90.7079 98.3537 91.1414 98.9919 91.6886 99.5247C92.2358 100.057 92.8855 100.474 93.5982 100.748C94.3109 101.023 95.0718 101.15 95.8351 101.122C97.2633 101.076 98.6192 100.483 99.6224 99.4652C100.626 98.4476 101.199 97.0834 101.225 95.6546L101.354 95.6804Z" fill="#432FA1"/>
<path d="M83.2752 117.499C79.5067 114.825 76.6452 111.064 75.074 106.719C75.074 106.306 75.074 105.893 74.6872 105.61C74.1332 102.632 74.0549 99.5854 74.4551 96.5832C74.9533 93.613 76.0957 90.7879 77.8021 88.3062C79.5085 85.8246 81.7375 83.7466 84.3326 82.2182C87.6406 80.6784 91.3516 80.227 94.9322 80.9288C85.5447 80.3098 78.1688 89.9294 79.4583 99.4201C80.3782 104.13 82.8687 108.388 86.5228 111.499C90.1769 114.61 94.7782 116.388 99.5744 116.545C113.527 117.292 123.894 105.249 125.364 93.669C125.583 91.8203 125.686 89.9598 125.674 88.0983C126.493 94.8012 125.165 101.591 121.883 107.492C121.573 108.085 121.315 108.73 121.032 109.349L120.619 109.684C119.536 111.026 118.478 112.418 117.318 113.708C114.473 116.923 110.847 119.351 106.79 120.756C102.733 122.161 98.3827 122.496 94.1585 121.728C90.7532 121.075 87.4665 119.91 84.41 118.272V118.272L84.1005 117.963C84.0303 117.808 83.9124 117.679 83.764 117.596C83.6155 117.512 83.4443 117.478 83.2752 117.499Z" fill="#432FA1"/>
<path d="M76.5439 79.3295C73.3886 81.6916 70.7854 84.7122 68.9149 88.1815C67.0444 91.6508 65.9515 95.4857 65.7121 99.4199C65.7121 100.4 65.7121 101.38 65.5832 102.386C64.9126 90.7545 68.6522 80.9027 78.0913 73.8105C83.367 70.1081 89.8378 68.5154 96.2293 69.3459C102.621 70.1765 108.47 73.3702 112.624 78.2979C119.819 87.1955 117.782 102.308 107.466 108.292C104.004 110.313 99.9195 110.992 95.9894 110.2C98.7253 110.289 101.429 109.59 103.779 108.186C106.129 106.783 108.026 104.733 109.245 102.283C109.906 101.577 110.306 100.667 110.38 99.7035C110.509 99.6381 110.612 99.5313 110.673 99.4004C110.733 99.2695 110.748 99.122 110.715 98.9814C111.191 97.5138 111.452 95.9849 111.489 94.4424C111.402 89.4109 109.426 84.5962 105.952 80.9553C102.478 77.3143 97.7618 75.1136 92.7399 74.7905C89.8731 74.3801 86.9522 74.5718 84.1636 75.3533C81.375 76.1348 78.7799 77.489 76.5439 79.3295V79.3295Z" fill="#432FA1"/>
<path d="M92.7403 74.7906C97.7542 75.093 102.472 77.2674 105.958 80.8831C109.445 84.4988 111.447 89.292 111.567 94.3136C111.53 95.856 111.269 97.3849 110.793 98.8526L110.458 99.5747C109.091 99.5747 108.214 100.838 106.925 101.096C107.716 99.2417 108.112 97.242 108.085 95.2257C108.058 93.2093 107.61 91.2208 106.77 89.3877C105.285 86.3022 102.727 83.8634 99.5747 82.5276C98.2448 81.5473 96.6591 80.9739 95.0099 80.8771C91.4292 80.1753 87.7182 80.6267 84.4102 82.1666C86.1266 78.7216 89.113 76.0773 92.7403 74.7906Z" fill="#440263"/>
<path d="M109.323 102.283C108.104 104.734 106.207 106.783 103.857 108.186C101.507 109.59 98.8031 110.289 96.0673 110.2C94.2258 110.176 92.432 109.611 90.9093 108.575C92.7146 108.575 94.4425 109.194 96.2736 108.988C98.228 108.82 100.114 108.187 101.774 107.141C103.434 106.096 104.82 104.669 105.816 102.979C107.131 103.16 108.137 102.283 109.323 102.283Z" fill="#672574"/>
<path d="M117.318 147.776C117.318 149.324 117.008 151.206 117.756 152.315C118.504 153.424 120.542 152.599 121.96 152.934L123.456 153.166C122.038 153.72 120.505 153.915 118.994 153.734C117.885 153.734 117.447 154.017 117.473 155.178C117.537 156.67 117.389 158.163 117.034 159.614C116.489 158.329 116.302 156.921 116.492 155.539C116.492 154.198 116.183 153.63 114.739 153.708C113.317 153.912 111.866 153.734 110.535 153.192C112.016 152.863 113.531 152.707 115.048 152.728C115.951 152.728 116.441 152.496 116.364 151.49C116.286 150.484 116.364 149.246 116.364 148.137C116.75 147.905 116.364 147.235 116.957 147.157C117.105 147.346 117.227 147.554 117.318 147.776V147.776Z" fill="#FDFDFE"/>
<path d="M22.3589 61.8956C22.8231 63.4688 22.5652 63.7525 20.6825 63.6493C20.5536 62.4372 20.4246 61.1993 22.3589 61.8956Z" fill="#FDFDFE"/>
<path d="M190.844 80.6709C189.787 81.8572 190.225 83.2499 190.045 84.7199C187.766 102.008 180.528 118.266 169.207 131.529C167.943 133.024 166.963 134.804 164.926 135.449C169.374 129.54 173.17 123.167 176.247 116.441C183.116 101.083 185.606 84.1253 183.443 67.4407C182.776 61.2753 181.364 55.2135 179.239 49.3878C179.033 48.8462 178.672 48.4851 178.44 47.9951C178.592 46.9459 178.392 45.8757 177.872 44.9519C174.507 36.2364 169.913 28.0469 164.229 20.632C164.049 20.3741 163.894 20.0905 163.739 19.8326L164.1 19.4715C171.295 26.6051 177.202 34.9288 181.56 44.075C186.954 55.4018 190.124 67.659 190.896 80.1809C190.9 80.3457 190.882 80.5104 190.844 80.6709V80.6709Z" fill="#64358C"/>
<path d="M164.178 130.032C164.174 130.235 164.131 130.434 164.05 130.619C163.968 130.804 163.851 130.971 163.705 131.11C163.558 131.25 163.385 131.358 163.197 131.43C163.008 131.502 162.806 131.535 162.604 131.528C162.403 131.545 162.2 131.517 162.01 131.445C161.821 131.374 161.65 131.261 161.509 131.116C161.368 130.97 161.262 130.795 161.197 130.603C161.132 130.412 161.111 130.208 161.134 130.007C161.123 129.807 161.154 129.608 161.225 129.421C161.297 129.235 161.406 129.065 161.548 128.924C161.689 128.783 161.858 128.673 162.045 128.602C162.231 128.531 162.431 128.5 162.63 128.511C163.034 128.517 163.42 128.679 163.708 128.962C163.996 129.245 164.164 129.629 164.178 130.032V130.032Z" fill="#FDFDFE"/>
<path d="M149.426 27.4663C149.426 27.9047 149.194 28.3431 148.575 28.3947C148.438 28.427 148.296 28.427 148.159 28.3947C148.023 28.3623 147.895 28.2985 147.788 28.2084C147.68 28.1183 147.595 28.0042 147.539 27.8754C147.483 27.7466 147.458 27.6065 147.466 27.4663C147.466 26.7957 147.853 26.4863 148.497 26.4863C149.142 26.4863 149.349 26.8473 149.426 27.4663Z" fill="#FDFDFE"/>
<path d="M164.564 135.784C164.564 135.964 164.564 136.377 164.177 136.222L164.564 135.784Z" fill="#22CEFD"/>
<path d="M28.033 172.405L27.7493 171.993H27.9298C27.9298 172.173 27.9298 172.328 27.9298 172.508L28.033 172.405Z" fill="#814FC0"/>
<path d="M28.3937 172.792L28.0327 172.405C28.3163 172.405 28.3937 172.56 28.3937 172.792Z" fill="#814FC0"/>
<path d="M47.0667 58.0531C47.0824 58.5332 46.9963 59.0112 46.814 59.4557C46.6318 59.9002 46.3575 60.3011 46.0093 60.6321C40.0033 68.9071 36.0438 78.4876 34.4554 88.5883C31.5616 106.076 35.6152 124.002 45.7514 138.543C52.3764 147.953 61.0884 155.703 71.206 161.187C80.5762 166.525 90.9264 169.92 101.638 171.167C122.194 173.795 142.974 168.431 159.691 156.184C160.173 155.782 160.794 155.587 161.419 155.642C152.904 164.487 142.241 170.973 130.471 174.469C96.3769 184.32 66.8991 176.403 42.7856 150.123C34.6439 140.86 29.4062 129.407 27.7243 117.189C27.7179 116.564 27.549 115.95 27.2343 115.41C27.2855 113.453 27.1821 111.496 26.9248 109.555V108.937C26.6394 103.165 27.0551 97.3802 28.1627 91.7089L28.369 91.0641L28.6011 90.2388C30.8918 81.3236 34.914 72.9462 40.4387 65.5837C42.4314 62.8908 44.6487 60.3716 47.0667 58.0531V58.0531Z" fill="#4D358B"/>
<path d="M80.619 29.5811C80.619 30.6385 80.619 31.6701 79.4068 32.1601C78.1947 32.6501 77.3694 31.928 76.6731 31.0253C76.5357 30.5089 76.5939 29.9599 76.8367 29.4839C77.0795 29.0078 77.4897 28.6383 77.9884 28.4463C78.4901 28.2885 79.0318 28.3162 79.5147 28.5245C79.9976 28.7329 80.3895 29.1078 80.619 29.5811V29.5811Z" fill="#FDFDFE"/>
<path d="M26.9242 108.936V109.555C24.5515 111.902 24.5515 111.902 26.5373 114.507C26.7071 114.764 26.8621 115.031 27.0015 115.306C25.9441 115.306 25.5831 114.352 25.0415 113.811C24.4999 113.269 23.4941 112.856 22.6688 113.811C22.282 114.249 21.9209 114.816 21.2246 114.868C21.2246 114.868 21.2246 114.636 21.2246 114.584C21.6372 113.553 23.3394 113.089 22.9525 112.005C22.5657 110.922 21.5856 110.329 20.812 109.426C21.0183 109.426 21.1214 109.22 21.173 109.246C22.3593 109.684 22.8751 111.567 24.1904 111.232C25.5057 110.896 25.9699 109.71 26.9242 108.936Z" fill="#FDFDFE"/>
<path d="M26.9503 115.307C26.8109 115.031 26.6559 114.764 26.4861 114.507C24.5003 111.928 24.5003 111.928 26.873 109.555C27.1302 111.496 27.2337 113.453 27.1824 115.41C27.1381 115.414 27.0935 115.407 27.0528 115.389C27.0121 115.371 26.9768 115.342 26.9503 115.307V115.307Z" fill="#432FA1"/>
<path d="M53.8235 164.514C53.842 164.715 53.8173 164.918 53.7511 165.109C53.6849 165.3 53.5786 165.474 53.4394 165.621C53.3002 165.767 53.1313 165.882 52.944 165.958C52.7567 166.034 52.5554 166.069 52.3535 166.061C52.1553 166.093 51.9523 166.08 51.7601 166.022C51.5679 165.964 51.3916 165.862 51.2448 165.725C51.0979 165.588 50.9843 165.419 50.9127 165.232C50.8411 165.044 50.8135 164.843 50.8319 164.643C50.8003 164.443 50.8142 164.24 50.8723 164.046C50.9305 163.853 51.0315 163.676 51.1679 163.527C51.3042 163.378 51.4723 163.262 51.6598 163.187C51.8472 163.113 52.049 163.081 52.2503 163.095C52.4484 163.078 52.648 163.101 52.8366 163.164C53.0252 163.227 53.1988 163.328 53.3465 163.461C53.4942 163.594 53.6128 163.757 53.6949 163.938C53.7769 164.119 53.8207 164.315 53.8235 164.514Z" fill="#FDFDFE"/>
<path d="M28.3687 91.0642L28.1624 91.709L28.3687 91.0642Z" fill="#432FA1"/>
<path d="M162.346 154.533L162.914 154.146L162.346 154.533Z" fill="#22CEFD"/>
<path d="M161.96 155.075L162.373 154.507L161.96 155.075Z" fill="#22CEFD"/>
<path d="M128.356 61.8957L128.588 61.3026C129.619 60.1678 131.167 59.1362 131.502 57.8725C131.837 56.6088 129.774 55.7061 128.923 54.494C128.742 54.2103 128.33 54.0298 128.51 53.4366C129.742 54.2178 130.861 55.1636 131.837 56.2477C132.482 56.8409 132.92 56.8409 133.539 56.2477C134.644 55.0707 135.902 54.0472 137.279 53.2045C136.603 54.5537 135.665 55.7548 134.519 56.7377C133.591 57.6146 133.539 58.2078 134.519 59.1104C135.677 60.0063 136.569 61.2011 137.098 62.5663L136.144 61.7668C134.88 60.8899 133.9 58.8525 132.637 59.0588C131.373 59.2652 130.238 61.0189 129.052 62.102C128.82 62.102 128.536 62.3084 128.33 62.102L128.356 61.8957Z" fill="#FDFDFE"/>
<path d="M127.273 120.207L128.047 119.82C127.944 120.103 127.712 120.439 127.273 120.207Z" fill="#22CEFD"/>
<path d="M48.2006 57.1246L47.6332 57.5115L48.2006 57.1246Z" fill="#22CEFD"/>
<path d="M48.5621 56.7377L48.1495 57.202L48.5621 56.7377Z" fill="#22CEFD"/>
<path d="M127.943 119.846L128.33 119.433L127.943 119.846Z" fill="#22CEFD"/>
<path d="M62.6689 64.6295L63.1332 64.2169L62.6689 64.6295Z" fill="#22CEFD"/>
<path d="M92.7406 74.7906C89.0938 76.0659 86.0874 78.7116 84.3589 82.1666C81.7638 83.6949 79.5348 85.7729 77.8283 88.2545C76.1219 90.7362 74.9795 93.5613 74.4813 96.5315C74.0812 99.5337 74.1595 102.58 74.7134 105.558C73.1818 102.735 72.4087 99.5624 72.4697 96.351C72.1545 91.0961 73.3254 85.8586 75.8482 81.2381C76.2451 80.6748 76.4854 80.0162 76.5445 79.3297C78.7805 77.4892 81.3756 76.135 84.1642 75.3534C86.9528 74.5719 89.8737 74.3802 92.7406 74.7906V74.7906Z" fill="#440263"/>
<path d="M74.6868 105.738C75.0994 106.022 75.0736 106.435 75.0736 106.847C74.9141 106.715 74.7937 106.542 74.7256 106.347C74.6574 106.151 74.6439 105.941 74.6868 105.738V105.738Z" fill="#14A1F1"/>
<path d="M83.2756 117.499C83.4233 117.504 83.5665 117.551 83.6894 117.633C83.8123 117.715 83.9101 117.829 83.972 117.963C83.8236 117.961 83.6791 117.916 83.5556 117.833C83.4322 117.751 83.335 117.635 83.2756 117.499V117.499Z" fill="#14A1F1"/>
<path d="M84.1005 117.963L84.5131 118.298L84.1005 117.963Z" fill="#14A1F1"/>
<path d="M109.323 102.283C108.137 102.283 107.131 103.108 105.945 102.979C106.098 102.298 106.437 101.673 106.925 101.174C108.215 100.916 109.091 99.7295 110.458 99.6521C110.395 100.634 109.994 101.563 109.323 102.283Z" fill="#440263"/>
<path d="M120.902 109.349C120.902 109.581 120.902 109.942 120.49 109.684L120.902 109.349Z" fill="#22CEFD"/>
<path d="M110.458 99.6262L110.794 98.9041C110.827 99.0446 110.811 99.1922 110.751 99.3231C110.69 99.454 110.587 99.5608 110.458 99.6262Z" fill="#14A1F1"/>
<path d="M134.803 91.5282C134.538 91.5335 134.276 91.4823 134.033 91.378C133.79 91.2737 133.572 91.1187 133.394 90.9234C133.216 90.728 133.081 90.4969 132.999 90.2454C132.918 89.9939 132.891 89.7278 132.92 89.465C132.908 89.2137 132.95 88.9627 133.043 88.7287C133.135 88.4946 133.276 88.2829 133.457 88.1074C133.637 87.9319 133.853 87.7967 134.089 87.7107C134.326 87.6246 134.578 87.5897 134.829 87.6082C135.096 87.5815 135.366 87.6133 135.62 87.7013C135.874 87.7893 136.106 87.9314 136.3 88.1177C136.494 88.3041 136.645 88.5303 136.742 88.7808C136.84 89.0312 136.882 89.2999 136.866 89.5682C136.878 89.8378 136.833 90.1069 136.732 90.3573C136.631 90.6077 136.478 90.8335 136.282 91.0194C136.086 91.2052 135.853 91.3469 135.598 91.4347C135.342 91.5225 135.071 91.5544 134.803 91.5282V91.5282Z" fill="#FDFDFE"/>
<path d="M84.4095 118.272C87.466 119.91 90.7528 121.075 94.1581 121.728C98.3623 122.472 102.687 122.126 106.719 120.722C110.751 119.317 114.356 116.902 117.188 113.708C118.349 112.418 119.406 111.129 120.49 109.684C120.954 109.942 120.902 109.684 120.902 109.349C123.481 108.962 124.358 106.77 125.622 105.12C130.258 99.2847 132.739 92.0285 132.645 84.5765C132.551 77.1244 129.888 69.9331 125.106 64.2169C119.06 56.9948 110.587 52.2264 101.276 50.8062C94.6406 49.4898 87.7803 49.8679 81.3296 51.9054C74.879 53.9429 69.0462 57.5741 64.3708 62.4632C63.855 62.979 63.1844 63.4174 63.1586 64.2685L62.6944 64.6811C56.8798 69.3705 52.0727 75.1864 48.5616 81.7798C43.94 90.4574 41.8094 100.245 42.4057 110.058C43.0019 119.871 46.3018 129.329 51.94 137.383C52.1464 137.666 52.4558 137.924 52.6879 138.182C56.1594 142.965 60.3734 147.161 65.1702 150.613C75.8958 159.007 88.9403 163.904 102.54 164.643C112.79 165.388 123.079 163.845 132.66 160.125C142.241 156.405 150.875 150.601 157.936 143.134C160.103 140.942 162.114 138.569 164.203 136.274C164.693 136.429 164.513 136.016 164.59 135.835L164.848 135.5C166.886 134.855 167.866 133.076 169.129 131.58C180.488 118.33 187.762 102.071 190.071 84.7714C190.251 83.4304 189.813 81.9088 190.87 80.7224V82.5793C190.797 82.6492 190.738 82.7332 190.698 82.8263C190.659 82.9194 190.638 83.0196 190.638 83.1209C190.638 83.2222 190.659 83.3224 190.698 83.4155C190.738 83.5086 190.797 83.5926 190.87 83.6625V93.7721C190.225 95.0358 190.664 96.3511 190.251 97.7695C188.825 109.345 185.331 120.57 179.935 130.91C175.964 138.636 170.957 145.786 165.054 152.16C164.384 152.883 163.636 153.501 162.914 154.198L162.346 154.585L161.934 155.152L161.392 155.719C160.767 155.664 160.146 155.859 159.664 156.261C142.943 168.475 122.175 173.81 101.637 171.168C90.9254 169.92 80.5752 166.525 71.2051 161.187C61.0697 155.684 52.348 147.907 45.7247 138.466C35.5884 123.925 31.5349 105.999 34.4287 88.511C36.0171 78.4103 39.9766 68.8297 45.9826 60.5547C46.3308 60.2238 46.6051 59.8229 46.7873 59.3784C46.9696 58.9339 47.0557 58.4559 47.04 57.9758L47.6073 57.4342L48.1747 57.0473L48.5874 56.5831C53.6129 51.7888 59.5502 48.0527 66.0471 45.5966C75.6034 41.8344 86.0184 40.8067 96.1258 42.6286C106.233 44.4506 115.634 49.0503 123.275 55.9126C125.199 57.5792 126.977 59.4085 128.588 61.38L128.355 61.9732V61.8958C128.562 62.1537 128.845 61.8958 129.078 61.8958C134.756 68.9204 138.18 77.4958 138.903 86.4994C140.023 98.0734 136.529 109.622 129.181 118.634C128.949 118.917 128.665 119.149 128.407 119.407L128.02 119.82L127.246 120.207C125.054 120.929 123.249 122.399 121.134 123.327C116.78 125.266 112.077 126.302 107.311 126.371C99.4381 126.629 91.7102 124.211 85.3895 119.51C84.9769 119.201 84.4095 118.943 84.4095 118.272Z" fill="#64358C"/>
<path d="M162.708 100.039C164.561 92.1553 164.929 83.9953 163.792 75.977C162.323 63.1927 157.131 51.1216 148.859 41.2638C136.683 26.7327 119.717 17.0287 101.019 13.9007C85.1103 10.8138 68.6399 12.6119 53.772 19.0587C41.7473 24.3037 31.1403 32.3297 22.8242 42.4759C12.6249 54.6672 5.54408 69.1564 2.19225 84.694C1.26056 88.6067 0.673743 92.5936 0.43854 96.6089C0.363607 97.0981 0.251527 97.5809 0.103271 98.0531V87.6856C0.49012 87.5566 0.438541 87.2472 0.464331 86.9377C0.884774 81.9367 1.74782 76.9828 3.04332 72.1343C7.41418 54.3576 16.89 38.2478 30.3032 25.7899C44.4352 12.492 62.3176 3.86592 81.5219 1.08318C83.7439 0.935648 85.9464 0.57289 88.0983 0H102.283C102.463 0.464218 102.902 0.309479 103.237 0.335269C113.775 1.11064 124.098 3.71111 133.746 8.02065C152.476 16.1997 168.1 30.152 178.337 47.8402C178.569 48.3302 178.93 48.6913 179.137 49.2329C181.262 55.0586 182.674 61.1204 183.34 67.2858C185.504 83.9704 183.014 100.928 176.145 116.287C173.068 123.012 169.272 129.385 164.823 135.294L164.565 135.629L164.178 136.067C162.089 138.363 160.078 140.735 157.912 142.928C150.85 150.395 142.216 156.199 132.635 159.919C123.054 163.639 112.766 165.182 102.515 164.436C88.9154 163.698 75.8709 158.8 65.1453 150.407C60.3484 146.955 56.1345 142.758 52.663 137.976C54.3136 136.377 55.9899 134.804 57.6147 133.205C59.6263 131.245 59.7037 131.219 61.7927 133.205L62.5921 134.004C66.9907 137.916 72.1176 140.922 77.6792 142.85C79.586 143.366 81.4352 144.074 83.1983 144.965C91.2795 148.351 100.041 149.799 108.782 149.194C111.361 149.04 113.94 148.447 116.519 148.06C116.519 149.169 116.519 150.278 116.519 151.412C116.519 152.547 116.106 152.65 115.203 152.65C113.652 152.622 112.102 152.778 110.587 153.115C111.918 153.656 113.369 153.834 114.791 153.63C116.235 153.63 116.596 154.12 116.545 155.461C116.354 156.844 116.542 158.252 117.086 159.536C117.441 158.086 117.589 156.592 117.525 155.1C117.525 153.94 117.937 153.63 119.046 153.656C120.557 153.838 122.09 153.643 123.508 153.089L122.012 152.857C120.594 152.521 118.53 153.321 117.808 152.238C117.086 151.154 117.473 149.246 117.37 147.699C123.422 146.59 129.186 144.265 134.314 140.864C147.449 132.356 157.123 119.445 161.599 104.449C163.018 105.068 164.385 105.171 165.262 103.624C166.138 102.076 165.133 100.581 162.708 100.039ZM164.178 130.033C164.165 129.629 163.997 129.246 163.709 128.962C163.421 128.679 163.035 128.517 162.631 128.511C162.432 128.5 162.232 128.531 162.046 128.602C161.859 128.673 161.69 128.783 161.548 128.924C161.407 129.065 161.297 129.235 161.226 129.421C161.155 129.608 161.124 129.807 161.135 130.007C161.112 130.208 161.133 130.412 161.198 130.603C161.263 130.795 161.369 130.97 161.51 131.116C161.65 131.261 161.822 131.374 162.011 131.445C162.201 131.517 162.404 131.545 162.605 131.528C162.807 131.535 163.009 131.502 163.197 131.43C163.386 131.358 163.559 131.25 163.706 131.11C163.852 130.971 163.969 130.804 164.05 130.619C164.132 130.434 164.175 130.235 164.178 130.033V130.033ZM149.427 27.4662C149.427 26.8473 149.091 26.4862 148.498 26.4862C147.905 26.4862 147.441 26.7957 147.467 27.4662C147.463 27.6043 147.491 27.7414 147.549 27.8669C147.606 27.9924 147.692 28.103 147.799 28.1902C147.906 28.2774 148.032 28.3389 148.167 28.3699C148.301 28.4008 148.441 28.4005 148.576 28.3689C149.195 28.3689 149.323 27.9046 149.427 27.4662Z" fill="#432FA1"/>
<path d="M33.392 70.56L43.184 90.656L53.104 70.56H64.56L48.368 100.512V116H37.936V100.384L22 70.56H33.392ZM78.0825 116.64C75.2238 116.64 72.6638 116.171 70.4025 115.232C68.1838 114.293 66.3065 113.013 64.7705 111.392C63.2345 109.771 62.0612 107.915 61.2505 105.824C60.4825 103.733 60.0985 101.536 60.0985 99.232C60.0985 96.8853 60.4825 94.6667 61.2505 92.576C62.0612 90.4853 63.2345 88.6293 64.7705 87.008C66.3065 85.3867 68.1838 84.1067 70.4025 83.168C72.6638 82.2293 75.2238 81.76 78.0825 81.76C80.9412 81.76 83.4798 82.2293 85.6985 83.168C87.9172 84.1067 89.7945 85.3867 91.3305 87.008C92.8665 88.6293 94.0398 90.4853 94.8505 92.576C95.6612 94.6667 96.0665 96.8853 96.0665 99.232C96.0665 101.536 95.6612 103.733 94.8505 105.824C94.0398 107.915 92.8665 109.771 91.3305 111.392C89.7945 113.013 87.9172 114.293 85.6985 115.232C83.4798 116.171 80.9412 116.64 78.0825 116.64ZM70.5945 99.232C70.5945 100.981 70.9145 102.517 71.5545 103.84C72.2372 105.163 73.1332 106.187 74.2425 106.912C75.3518 107.637 76.6318 108 78.0825 108C79.4905 108 80.7492 107.637 81.8585 106.912C83.0105 106.144 83.9065 105.099 84.5465 103.776C85.1865 102.453 85.5065 100.939 85.5065 99.232C85.5065 97.4827 85.1865 95.9467 84.5465 94.624C83.9065 93.3013 83.0105 92.2773 81.8585 91.552C80.7492 90.8267 79.4905 90.464 78.0825 90.464C76.6318 90.464 75.3518 90.8267 74.2425 91.552C73.1332 92.2773 72.2372 93.3013 71.5545 94.624C70.9145 95.9467 70.5945 97.4827 70.5945 99.232ZM100.825 103.904V82.4H111.065V101.664C111.065 103.712 111.47 105.291 112.281 106.4C113.092 107.467 114.244 108 115.737 108C116.676 108 117.572 107.851 118.425 107.552C119.278 107.211 120.11 106.677 120.921 105.952C121.732 105.227 122.457 104.288 123.097 103.136V82.4H133.337V104.608C133.337 105.632 133.486 106.357 133.785 106.784C134.126 107.168 134.702 107.403 135.513 107.488V116C134.574 116.171 133.742 116.299 133.017 116.384C132.334 116.469 131.716 116.512 131.161 116.512C129.369 116.512 127.94 116.149 126.873 115.424C125.806 114.656 125.145 113.589 124.889 112.224L124.697 110.176C123.161 112.395 121.241 114.037 118.937 115.104C116.676 116.128 114.137 116.64 111.321 116.64C107.908 116.64 105.305 115.552 103.513 113.376C101.721 111.2 100.825 108.043 100.825 103.904ZM162.582 91.168C160.107 91.168 157.867 91.5733 155.862 92.384C153.857 93.152 152.406 94.304 151.51 95.84V116H141.27V82.4H150.678V89.184C151.83 86.9227 153.323 85.152 155.158 83.872C156.993 82.592 158.913 81.9307 160.918 81.888C161.387 81.888 161.729 81.888 161.942 81.888C162.198 81.888 162.411 81.9093 162.582 81.952V91.168Z" fill="white"/>
<path d="M96.9957 58.2336C90.3717 56.4667 83.4004 56.4667 76.7764 58.2336C71.9109 59.5289 67.2865 61.6016 63.082 64.3716C63.082 63.5205 63.7783 63.0821 64.2941 62.5663C68.9616 57.6548 74.794 54.0017 81.2502 51.9458C87.7063 49.89 94.5771 49.4979 101.225 50.8061C110.536 52.2263 119.009 56.9947 125.055 64.2168C129.837 69.933 132.5 77.1243 132.594 84.5764C132.688 92.0284 130.207 99.2846 125.571 105.12C124.307 106.744 123.353 108.962 120.851 109.349C121.135 108.73 121.393 108.085 121.702 107.492C124.985 101.591 126.312 94.8011 125.493 88.0982C124.983 83.2635 123.386 78.6067 120.823 74.4758C118.259 70.3449 114.795 66.8467 110.69 64.2426C106.595 61.3058 101.93 59.2589 96.9957 58.2336V58.2336Z" fill="#B7A4D0"/>
<path d="M77.7964 130.266C83.0955 134.615 89.4419 137.5 96.2033 138.633C101.169 139.467 106.236 139.493 111.21 138.712C110.858 139.486 110.043 139.597 109.36 139.853C103.078 142.393 96.2568 143.305 89.5286 142.505C82.8004 141.705 76.3833 139.219 70.8724 135.277C62.9837 130.131 57.2434 122.284 54.728 113.207C52.7401 106.025 53.2918 98.3762 56.29 91.5533C59.2882 84.7303 64.5491 79.151 71.1844 75.7576C73.0071 74.8014 74.7936 73.1772 77.2311 73.8602C76.7167 74.3063 76.2151 74.7865 75.6879 75.1985C70.2574 79.2121 66.2394 84.8443 64.2112 91.2853C62.6755 95.8979 62.202 100.798 62.8263 105.619C63.4505 110.441 65.1562 115.059 67.8161 119.128C70.3291 123.497 73.7288 127.29 77.7964 130.266V130.266Z" fill="#814FC0"/>
</svg>
